# xmcd CD database file
#
# Track frame offsets:
#	150
#	23362
#	41317
#	60735
#	80565
#	101700
#	122397
#	137092
#	157020
#	179090
#
# Disc length: 2673 seconds
#
# Revision: 2
# Processed by: cddbd v1.5PL3 Copyright (c) Steve Scherf et al.
# Submitted via: CDex 1.51
#
DISCID=7c0a6f0a
DTITLE=櫻井　智 - Summer Holidays
DYEAR=1999
DGENRE=Pop
TTITLE0=サマーホリデイ
TTITLE1=真夏の夜のミステリーツアー
TTITLE2=この夏いちばん晴れた日に
TTITLE3=夏服の少女
TTITLE4=太陽の迷宮
TTITLE5=One Night Lesson
TTITLE6=花の記憶
TTITLE7=君のために雨を降らそう
TTITLE8=私らしく
TTITLE9=Holidays
EXTD=YEAR: 1999
EXTT0=
EXTT1=
EXTT2=
EXTT3=
EXTT4=
EXTT5=
EXTT6=
EXTT7=
EXTT8=
EXTT9=
PLAYORDER=
